<svg version="1.1" viewBox="0.0 0.0 195.10498687664042 240.8451443569554" fill="none" stroke="none" stroke-linecap="square" stroke-miterlimit="10" xmlns:xlink="http://www.w3.org/1999/xlink" xmlns="http://www.w3.org/2000/svg"><clipPath id="p.0"><path d="m0 0l195.10498 0l0 240.84514l-195.10498 0l0 -240.84514z" clip-rule="nonzero"/></clipPath><g clip-path="url(#p.0)"><path fill="#000000" fill-opacity="0.0" d="m0 0l195.10498 0l0 240.84514l-195.10498 0z" fill-rule="evenodd"/><path fill="#ffffff" d="m26.843525 83.38976l0 0c0 -39.129593 31.657349 -70.850395 70.708664 -70.850395l0 0c18.753105 0 36.73813 7.464574 49.99858 20.751598c13.260437 13.287025 20.710083 31.308098 20.710083 50.098793l0 0c0 39.129593 -31.657349 70.850395 -70.708664 70.850395l0 0c-39.05131 0 -70.708664 -31.720802 -70.708664 -70.850395z" fill-rule="evenodd"/><path stroke="#3d85c6" stroke-width="4.0" stroke-linejoin="round" stroke-linecap="butt" d="m26.843525 83.38976l0 0c0 -39.129593 31.657349 -70.850395 70.708664 -70.850395l0 0c18.753105 0 36.73813 7.464574 49.99858 20.751598c13.260437 13.287025 20.710083 31.308098 20.710083 50.098793l0 0c0 39.129593 -31.657349 70.850395 -70.708664 70.850395l0 0c-39.05131 0 -70.708664 -31.720802 -70.708664 -70.850395z" fill-rule="evenodd"/><path fill="#3d85c6" d="m47.63706 94.996346l25.763775 -34.85039l25.763779 34.881893z" fill-rule="evenodd"/><path fill="#3d85c6" d="m99.16631 102.23685l-25.763779 34.88188l-25.763783 -34.850388z" fill-rule="evenodd"/><path fill="#3d85c6" d="m47.637505 102.25332l25.763779 -34.866142l25.763779 34.866142z" fill-rule="evenodd"/><path fill="#3d85c6" d="m99.16631 95.00328l-25.763779 34.881897l-25.763783 -34.850395z" fill-rule="evenodd"/><path fill="#3d85c6" d="m99.16497 94.9973l25.763779 -34.85039l25.763786 34.881893z" fill-rule="evenodd"/><path fill="#3d85c6" d="m150.69423 102.2378l-25.763786 34.88189l-25.763779 -34.850395z" fill-rule="evenodd"/><path fill="#3d85c6" d="m99.16542 102.25427l25.763779 -34.866142l25.763779 34.866142z" fill-rule="evenodd"/><path fill="#3d85c6" d="m150.69423 95.004234l-25.763786 34.88189l-25.763779 -34.850395z" fill-rule="evenodd"/><path fill="#3d85c6" d="m73.548096 60.412037l25.763779 -34.850395l25.763779 34.88189z" fill-rule="evenodd"/><path fill="#3d85c6" d="m125.07735 67.35659l-25.763779 34.88189l-25.763779 -34.850395z" fill-rule="evenodd"/><path fill="#3d85c6" d="m73.54854 67.37306l25.763786 -34.86614l25.763779 34.86614z" fill-rule="evenodd"/><path fill="#3d85c6" d="m125.07735 60.123028l-25.763779 34.881886l-25.763779 -34.85039z" fill-rule="evenodd"/><path fill="#3d85c6" d="m44.726 94.99507l25.763783 -34.85039l25.763779 34.881886z" fill-rule="evenodd"/><path fill="#3d85c6" d="m95.94002 101.93962l-25.763779 34.881897l-25.763779 -34.850395z" fill-rule="evenodd"/><path fill="#3d85c6" d="m44.41121 102.252045l25.763779 -34.866142l25.763779 34.866142z" fill-rule="evenodd"/><path fill="#3d85c6" d="m95.94002 94.68677l-25.763779 34.88188l-25.763779 -34.850388z" fill-rule="evenodd"/><path fill="#3d85c6" d="m95.938675 94.996025l25.763779 -34.850395l25.763779 34.88189z" fill-rule="evenodd"/><path fill="#3d85c6" d="m147.46793 102.23652l-25.763779 34.88189l-25.763779 -34.850388z" fill-rule="evenodd"/><path fill="#3d85c6" d="m95.939125 102.253l25.763779 -34.866142l25.763771 34.866142z" fill-rule="evenodd"/><path fill="#3d85c6" d="m147.46793 95.00296l-25.763779 34.88188l-25.763779 -34.850388z" fill-rule="evenodd"/><path fill="#3d85c6" d="m70.3218 60.41076l25.763779 -34.85039l25.763779 34.88189z" fill-rule="evenodd"/><path fill="#3d85c6" d="m121.85105 67.355316l-25.763779 34.88189l-25.763779 -34.850395z" fill-rule="evenodd"/><path fill="#3d85c6" d="m70.32224 67.37179l25.763786 -34.866142l25.763779 34.866142z" fill-rule="evenodd"/><path fill="#3d85c6" d="m121.69127 60.12175l-25.763779 34.88189l-25.763779 -34.85039z" fill-rule="evenodd"/><path fill="#000000" fill-opacity="0.0" d="m11.867455 157.21916l171.37009 0l0 71.08661l-171.37009 0z" fill-rule="evenodd"/><path fill="#3d85c6" d="m34.0569 207.17915q-0.8125 0 -1.34375 -0.4375q-0.53125 -0.453125 -0.53125 -1.21875l0 -30.0q0 -0.71875 0.46875 -1.1875q0.46875 -0.46875 1.1875 -0.46875l10.375 0q2.5625 0 4.625 1.09375q2.0625 1.078125 3.28125 2.953125q1.21875 1.875 1.21875 4.359375q0 2.296875 -1.234375 4.09375q-1.234375 1.78125 -3.25 2.71875q2.859375 0.78125 4.609375 2.890625q1.75 2.109375 1.75 5.34375q0 2.90625 -1.328125 5.125q-1.3125 2.21875 -3.640625 3.484375q-2.328125 1.25 -5.3125 1.25l-10.875 0zm1.453125 -3.203125l9.421875 0q2.046875 0 3.625 -0.796875q1.578125 -0.8125 2.46875 -2.3125q0.90625 -1.5 0.90625 -3.546875q0 -1.90625 -0.90625 -3.328125q-0.890625 -1.4375 -2.46875 -2.21875q-1.578125 -0.796875 -3.625 -0.796875l-9.421875 0l0 13.0zm0 -16.203125l8.703125 0q2.5625 0 4.21875 -1.453125q1.671875 -1.453125 1.671875 -4.046875q0 -2.5625 -1.671875 -3.875q-1.65625 -1.328125 -4.21875 -1.328125l-8.703125 0l0 10.703125zm36.505417 19.625q-3.40625 0 -6.09375 -1.53125q-2.6875 -1.546875 -4.21875 -4.234375q-1.53125 -2.6875 -1.53125 -6.09375q0 -3.453125 1.53125 -6.140625q1.53125 -2.6875 4.21875 -4.21875q2.6875 -1.546875 6.09375 -1.546875q3.421875 0 6.078125 1.546875q2.671875 1.53125 4.203125 4.21875q1.546875 2.6875 1.578125 6.140625q0 3.40625 -1.5625 6.09375q-1.546875 2.6875 -4.21875 4.234375q-2.65625 1.53125 -6.078125 1.53125zm0 -2.984375q2.484375 0 4.4375 -1.15625q1.96875 -1.15625 3.078125 -3.15625q1.109375 -2.0 1.109375 -4.5625q0 -2.5625 -1.109375 -4.578125q-1.109375 -2.03125 -3.078125 -3.1875q-1.953125 -1.15625 -4.4375 -1.15625q-2.46875 0 -4.4375 1.15625q-1.953125 1.15625 -3.09375 3.1875q-1.125 2.015625 -1.125 4.578125q0 2.5625 1.125 4.5625q1.140625 2.0 3.09375 3.15625q1.96875 1.15625 4.4375 1.15625zm26.409485 2.984375q-2.515625 0 -5.0 -0.859375q-2.46875 -0.859375 -4.0 -2.5625q-0.46875 -0.515625 -0.390625 -1.140625q0.09375 -0.640625 0.640625 -1.109375q0.609375 -0.4375 1.25 -0.34375q0.640625 0.078125 1.0625 0.546875q1.015625 1.203125 2.703125 1.84375q1.6875 0.640625 3.734375 0.640625q3.15625 0 4.5625 -1.09375q1.40625 -1.09375 1.453125 -2.625q0 -1.53125 -1.453125 -2.53125q-1.453125 -1.015625 -4.78125 -1.5625q-4.296875 -0.6875 -6.3125 -2.390625q-2.0 -1.703125 -2.0 -4.046875q0 -2.171875 1.15625 -3.625q1.15625 -1.453125 3.0625 -2.171875q1.921875 -0.734375 4.234375 -0.734375q2.859375 0 4.921875 0.984375q2.0625 0.984375 3.34375 2.640625q0.4375 0.5625 0.34375 1.15625q-0.078125 0.59375 -0.6875 0.984375q-0.5 0.296875 -1.171875 0.1875q-0.65625 -0.109375 -1.125 -0.625q-1.0625 -1.234375 -2.46875 -1.8125q-1.40625 -0.578125 -3.25 -0.578125q-2.34375 0 -3.75 0.96875q-1.40625 0.953125 -1.40625 2.40625q0 0.984375 0.53125 1.71875q0.53125 0.71875 1.828125 1.28125q1.3125 0.546875 3.65625 0.921875q3.203125 0.515625 5.046875 1.515625q1.859375 1.0 2.640625 2.34375q0.796875 1.34375 0.796875 2.921875q0 2.015625 -1.171875 3.53125q-1.171875 1.5 -3.25 2.359375q-2.0625 0.859375 -4.75 0.859375zm25.460434 0q-3.40625 0 -6.09375 -1.53125q-2.6875 -1.546875 -4.21875 -4.234375q-1.53125 -2.6875 -1.53125 -6.09375q0 -3.453125 1.53125 -6.140625q1.53125 -2.6875 4.21875 -4.21875q2.6875 -1.546875 6.09375 -1.546875q3.421875 0 6.078125 1.546875q2.671875 1.53125 4.203125 4.21875q1.546875 2.6875 1.578125 6.140625q0 3.40625 -1.5625 6.09375q-1.546875 2.6875 -4.21875 4.234375q-2.65625 1.53125 -6.078125 1.53125zm0 -2.984375q2.484375 0 4.4375 -1.15625q1.96875 -1.15625 3.078125 -3.15625q1.109375 -2.0 1.109375 -4.5625q0 -2.5625 -1.109375 -4.578125q-1.109375 -2.03125 -3.078125 -3.1875q-1.953125 -1.15625 -4.4375 -1.15625q-2.46875 0 -4.4375 1.15625q-1.953125 1.15625 -3.09375 3.1875q-1.125 2.015625 -1.125 4.578125q0 2.5625 1.125 4.5625q1.140625 2.0 3.09375 3.15625q1.96875 1.15625 4.4375 1.15625zm38.26886 2.765625q-0.71875 0 -1.1875 -0.46875q-0.46875 -0.46875 -0.46875 -1.15625l0 -11.09375q0 -2.640625 -1.015625 -4.34375q-1.0 -1.703125 -2.734375 -2.546875q-1.71875 -0.859375 -3.890625 -0.859375q-2.09375 0 -3.78125 0.8125q-1.6875 0.796875 -2.671875 2.21875q-0.96875 1.40625 -0.96875 3.1875l-2.34375 0q0.078125 -2.6875 1.4375 -4.796875q1.375 -2.109375 3.625 -3.328125q2.265625 -1.21875 5.046875 -1.21875q3.03125 0 5.40625 1.265625q2.390625 1.25 3.78125 3.6875q1.390625 2.4375 1.390625 5.921875l0 11.09375q0 0.6875 -0.46875 1.15625q-0.46875 0.46875 -1.15625 0.46875zm-18.34375 0q-0.765625 0 -1.21875 -0.4375q-0.4375 -0.453125 -0.4375 -1.1875l0 -20.046875q0 -0.765625 0.4375 -1.203125q0.453125 -0.453125 1.21875 -0.453125q0.734375 0 1.171875 0.453125q0.453125 0.4375 0.453125 1.203125l0 20.046875q0 0.734375 -0.453125 1.1875q-0.4375 0.4375 -1.171875 0.4375z" fill-rule="nonzero"/><path fill="#3d85c6" d="m99.16358 95.01788l25.763786 -34.866142l25.763779 34.866142z" fill-rule="evenodd"/></g></svg>